<svg width="41" height="41" viewBox="0 0 41 41" fill="none" xmlns="http://www.w3.org/2000/svg">
<path d="M0.65625 20.5C0.65625 9.45431 9.61056 0.5 20.6562 0.5C31.7019 0.5 40.6562 9.45431 40.6562 20.5C40.6562 31.5457 31.7019 40.5 20.6562 40.5C9.61056 40.5 0.65625 31.5457 0.65625 20.5Z" fill="#6366F1" fill-opacity="0.2"/>
<path d="M23.5545 21.2417L24.817 28.3467C24.8312 28.4304 24.8194 28.5163 24.7834 28.5932C24.7473 28.67 24.6887 28.7339 24.6153 28.7765C24.5419 28.8191 24.4573 28.8383 24.3727 28.8315C24.2881 28.8246 24.2076 28.7922 24.142 28.7384L21.1587 26.4992C21.0147 26.3916 20.8397 26.3335 20.6599 26.3335C20.4802 26.3335 20.3052 26.3916 20.1612 26.4992L17.1729 28.7375C17.1073 28.7912 17.0269 28.8237 16.9424 28.8305C16.858 28.8373 16.7734 28.8182 16.7001 28.7758C16.6267 28.7333 16.5681 28.6695 16.532 28.5928C16.4958 28.5162 16.4839 28.4303 16.4979 28.3467L17.7595 21.2417" stroke="#818CF8" stroke-width="2" stroke-linecap="round" stroke-linejoin="round"/>
<path d="M20.6562 22.1667C23.4177 22.1667 25.6562 19.9282 25.6562 17.1667C25.6562 14.4053 23.4177 12.1667 20.6562 12.1667C17.8948 12.1667 15.6562 14.4053 15.6562 17.1667C15.6562 19.9282 17.8948 22.1667 20.6562 22.1667Z" stroke="#818CF8" stroke-width="2" stroke-linecap="round" stroke-linejoin="round"/>
</svg>
