<svg width="40" height="41" viewBox="0 0 40 41" fill="none" xmlns="http://www.w3.org/2000/svg">
<path d="M0 20.5C0 9.45431 8.95431 0.5 20 0.5C31.0457 0.5 40 9.45431 40 20.5C40 31.5457 31.0457 40.5 20 40.5C8.95431 40.5 0 31.5457 0 20.5Z" fill="#A855F7" fill-opacity="0.2"/>
<path d="M13.7507 24.25C12.5007 25.3 12.084 28.4167 12.084 28.4167C12.084 28.4167 15.2007 28 16.2507 26.75C16.8423 26.05 16.834 24.975 16.1757 24.325C15.8517 24.0159 15.4251 23.8372 14.9775 23.8234C14.53 23.8095 14.093 23.9615 13.7507 24.25Z" stroke="#C084FC" stroke-width="2" stroke-linecap="round" stroke-linejoin="round"/>
<path d="M20 23L17.5 20.5C17.9435 19.3496 18.5018 18.2468 19.1667 17.2084C20.1377 15.6559 21.4897 14.3776 23.0942 13.4951C24.6986 12.6127 26.5022 12.1554 28.3333 12.1667C28.3333 14.4334 27.6833 18.4167 23.3333 21.3334C22.2807 21.999 21.164 22.5573 20 23Z" stroke="#C084FC" stroke-width="2" stroke-linecap="round" stroke-linejoin="round"/>
<path d="M17.5007 20.4999H13.334C13.334 20.4999 13.7923 17.9749 15.0007 17.1666C16.3507 16.2666 19.1673 17.1666 19.1673 17.1666" stroke="#C084FC" stroke-width="2" stroke-linecap="round" stroke-linejoin="round"/>
<path d="M20 22.9999V27.1666C20 27.1666 22.525 26.7083 23.3333 25.4999C24.2333 24.1499 23.3333 21.3333 23.3333 21.3333" stroke="#C084FC" stroke-width="2" stroke-linecap="round" stroke-linejoin="round"/>
</svg>
