<svg width="1423" height="513" viewBox="0 0 1423 513" fill="none" xmlns="http://www.w3.org/2000/svg">
<path d="M158.96 127.17V218.98C158.96 229.04 161.58 236.73 166.82 242.04C172.06 247.35 179.43 250.01 188.92 250.01C198.41 250.01 205.99 247.35 211.23 242.04C216.47 236.73 219.09 229.04 219.09 218.98C219.05 182.31 219.02 145.64 218.98 108.97H249.13C249.1 145.57 249.08 182.17 249.05 218.77C249.05 231.38 246.32 242.04 240.87 250.75C235.41 259.46 228.12 266.02 218.98 270.41C209.84 274.8 199.67 277 188.48 277C177.29 277 167.4 274.81 158.41 270.41C149.41 266.02 142.29 259.47 137.05 250.75C131.81 242.04 129.19 231.38 129.19 218.77V127.18H158.94L158.96 127.17Z" fill="#E23B41"/>
<path d="M356.18 169.35C364.82 178.2 369.14 190.57 369.14 206.43V275.5H339.39V210.47C339.39 201.12 337.05 193.93 332.38 188.9C327.7 183.87 321.33 181.36 313.25 181.36C305.17 181.36 298.55 183.88 293.8 188.9C289.05 193.93 286.68 201.12 286.68 210.47V275.5H256.93V157.77H286.68V172.43C290.64 167.33 295.71 163.33 301.87 160.42C308.03 157.52 314.8 156.06 322.17 156.06C336.2 156.06 347.53 160.49 356.17 169.34L356.18 169.35Z" fill="white"/>
<path d="M395.7 272.209C388.05 268.739 381.99 264.029 377.53 258.079C373.07 252.129 370.62 245.539 370.2 238.319H400.17C400.73 242.849 402.97 246.609 406.86 249.579C410.76 252.559 415.61 254.039 421.42 254.039C427.23 254.039 431.51 252.909 434.7 250.639C437.89 248.379 439.48 245.469 439.48 241.929C439.48 238.099 437.53 235.239 433.64 233.319C429.74 231.409 423.55 229.319 415.04 227.049C406.25 224.919 399.06 222.729 393.47 220.459C387.87 218.189 383.06 214.719 379.02 210.049C374.98 205.369 372.96 199.069 372.96 191.139C372.96 184.629 374.84 178.669 378.59 173.289C382.34 167.909 387.73 163.659 394.74 160.539C401.75 157.419 410 155.859 419.5 155.859C433.53 155.859 444.72 159.369 453.08 166.379C461.44 173.389 466.04 182.849 466.89 194.749H438.41C437.99 190.069 436.04 186.359 432.57 183.589C429.1 180.829 424.46 179.439 418.65 179.439C413.26 179.439 409.12 180.429 406.22 182.419C403.31 184.409 401.86 187.169 401.86 190.709C401.86 194.679 403.84 197.689 407.81 199.739C411.77 201.799 417.94 203.879 426.3 206.009C434.8 208.139 441.81 210.329 447.34 212.599C452.87 214.869 457.65 218.369 461.68 223.119C465.72 227.869 467.81 234.139 467.95 241.929C467.95 248.729 466.07 254.819 462.32 260.209C458.56 265.589 453.18 269.809 446.17 272.849C439.16 275.889 430.98 277.419 421.62 277.419C412.26 277.419 403.34 275.679 395.69 272.209H395.7Z" fill="white"/>
<path d="M507.65 182.209V239.159C507.65 243.129 508.61 245.999 510.52 247.769C512.43 249.539 515.65 250.429 520.19 250.429H534V275.509H515.3C490.22 275.509 477.68 263.329 477.68 238.959V182.219H463.65V157.779H477.68V128.659H507.65V157.779H534V182.219H507.65V182.209Z" fill="white"/>
<path d="M557.75 269.87C548.68 264.84 541.56 257.72 536.39 248.51C531.22 239.3 528.63 228.68 528.63 216.63C528.63 204.58 531.29 193.96 536.6 184.75C541.91 175.54 549.17 168.42 558.38 163.39C567.59 158.36 577.86 155.85 589.19 155.85C600.52 155.85 610.79 158.37 620 163.39C629.21 168.42 636.47 175.54 641.78 184.75C647.09 193.96 649.75 204.59 649.75 216.63C649.75 228.67 647.02 239.3 641.57 248.51C636.11 257.72 628.75 264.84 619.47 269.87C610.19 274.9 599.81 277.41 588.34 277.41C576.87 277.41 566.8 274.9 557.74 269.87H557.75ZM603.54 247.56C608.28 244.94 612.07 241.01 614.91 235.77C617.74 230.53 619.16 224.15 619.16 216.64C619.16 205.45 616.22 196.84 610.34 190.82C604.46 184.8 597.27 181.79 588.77 181.79C580.27 181.79 573.15 184.8 567.41 190.82C561.67 196.84 558.8 205.45 558.8 216.64C558.8 227.83 561.6 236.44 567.19 242.46C572.79 248.48 579.83 251.49 588.34 251.49C593.72 251.49 598.79 250.18 603.53 247.56H603.54Z" fill="white"/>
<path d="M697.85 161.27C704.58 157.66 712.26 155.85 720.91 155.85C730.97 155.85 740.07 158.33 748.22 163.29C756.37 168.25 762.81 175.3 767.56 184.44C772.31 193.58 774.68 204.17 774.68 216.21C774.68 228.25 772.31 238.92 767.56 248.19C762.81 257.47 756.37 264.66 748.22 269.76C740.07 274.86 730.97 277.41 720.91 277.41C712.27 277.41 704.65 275.64 698.06 272.1C691.47 268.56 686.12 264.1 682.02 258.71V331.6H652.27V157.76H682.02V174.76C685.85 169.38 691.12 164.88 697.85 161.26V161.27ZM739.93 197.83C737.02 192.66 733.2 188.73 728.45 186.04C723.7 183.35 718.57 182 713.04 182C707.51 182 702.59 183.38 697.85 186.15C693.1 188.91 689.28 192.92 686.37 198.16C683.46 203.4 682.01 209.57 682.01 216.65C682.01 223.73 683.46 229.9 686.37 235.14C689.27 240.38 693.1 244.39 697.85 247.15C702.6 249.91 707.66 251.29 713.04 251.29C718.42 251.29 723.7 249.88 728.45 247.04C733.2 244.21 737.02 240.17 739.93 234.93C742.83 229.69 744.29 223.46 744.29 216.23C744.29 209 742.84 203.02 739.93 197.85V197.83Z" fill="white"/>
<path d="M823.98 161.27C830.71 157.66 838.39 155.85 847.04 155.85C857.1 155.85 866.2 158.33 874.35 163.29C882.5 168.25 888.94 175.3 893.69 184.44C898.44 193.58 900.81 204.17 900.81 216.21C900.81 228.25 898.44 238.92 893.69 248.19C888.94 257.47 882.5 264.66 874.35 269.76C866.2 274.86 857.1 277.41 847.04 277.41C838.4 277.41 830.78 275.64 824.19 272.1C817.6 268.56 812.25 264.1 808.15 258.71V331.6H778.4V157.76H808.15V174.76C811.98 169.38 817.25 164.88 823.98 161.26V161.27ZM866.06 197.83C863.15 192.66 859.33 188.73 854.58 186.04C849.83 183.35 844.7 182 839.17 182C833.64 182 828.72 183.38 823.98 186.15C819.23 188.91 815.41 192.92 812.5 198.16C809.59 203.4 808.14 209.57 808.14 216.65C808.14 223.73 809.59 229.9 812.5 235.14C815.4 240.38 819.23 244.39 823.98 247.15C828.73 249.91 833.79 251.29 839.17 251.29C844.55 251.29 849.83 249.88 854.58 247.04C859.33 244.21 863.15 240.17 866.06 234.93C868.96 229.69 870.42 223.46 870.42 216.23C870.42 209 868.97 203.02 866.06 197.85V197.83Z" fill="white"/>
<path d="M911.17 184.549C915.92 175.339 922.36 168.259 930.51 163.299C938.66 158.339 947.76 155.859 957.82 155.859C966.6 155.859 974.29 157.629 980.88 161.169C987.47 164.709 992.74 169.179 996.71 174.559V157.769H1026.67V275.499H996.71V258.289C992.88 263.809 987.61 268.379 980.88 271.999C974.15 275.609 966.39 277.419 957.61 277.419C947.69 277.419 938.66 274.869 930.51 269.769C922.36 264.669 915.92 257.479 911.17 248.199C906.42 238.919 904.05 228.259 904.05 216.219C904.05 204.179 906.42 193.769 911.17 184.559V184.549ZM992.46 198.039C989.62 192.869 985.8 188.899 980.98 186.139C976.16 183.379 970.99 181.989 965.47 181.989C959.95 181.989 954.84 183.339 950.17 186.029C945.49 188.719 941.7 192.649 938.8 197.819C935.89 202.989 934.44 209.119 934.44 216.199C934.44 223.279 935.89 229.479 938.8 234.799C941.7 240.109 945.53 244.189 950.28 247.019C955.02 249.859 960.09 251.269 965.47 251.269C970.85 251.269 976.17 249.889 980.98 247.129C985.79 244.369 989.62 240.399 992.46 235.229C995.29 230.059 996.71 223.859 996.71 216.639C996.71 209.419 995.29 203.219 992.46 198.039Z" fill="white"/>
<path d="M1079.11 161.17C1085.84 157.63 1093.52 155.86 1102.17 155.86C1112.23 155.86 1121.33 158.34 1129.48 163.3C1137.63 168.26 1144.07 175.31 1148.82 184.45C1153.57 193.59 1155.94 204.18 1155.94 216.22C1155.94 228.26 1153.57 238.93 1148.82 248.2C1144.07 257.48 1137.63 264.67 1129.48 269.77C1121.33 274.87 1112.23 277.42 1102.17 277.42C1093.38 277.42 1085.7 275.68 1079.11 272.21C1072.52 268.74 1067.24 264.24 1063.28 258.72V275.51H1033.53V118.25H1063.28V174.99C1067.11 169.32 1072.38 164.72 1079.11 161.17ZM1121.19 197.83C1118.28 192.66 1114.46 188.73 1109.71 186.04C1104.96 183.35 1099.83 182 1094.3 182C1088.77 182 1083.85 183.38 1079.11 186.15C1074.36 188.91 1070.54 192.92 1067.63 198.16C1064.72 203.4 1063.27 209.57 1063.27 216.65C1063.27 223.73 1064.72 229.9 1067.63 235.14C1070.53 240.38 1074.36 244.39 1079.11 247.15C1083.86 249.91 1088.92 251.29 1094.3 251.29C1099.68 251.29 1104.96 249.88 1109.71 247.04C1114.46 244.21 1118.28 240.17 1121.19 234.93C1124.09 229.69 1125.55 223.46 1125.55 216.23C1125.55 209 1124.1 203.02 1121.19 197.85V197.83Z" fill="white"/>
<path d="M1189.41 118.239V275.499H1159.66V118.239H1189.41Z" fill="white"/>
<path d="M1307.94 225.559H1221.87C1222.58 234.059 1225.55 240.719 1230.8 245.539C1236.04 250.359 1242.49 252.769 1250.14 252.769C1261.19 252.769 1269.05 248.019 1273.73 238.529H1305.82C1302.42 249.869 1295.9 259.179 1286.27 266.469C1276.63 273.769 1264.81 277.419 1250.78 277.419C1239.44 277.419 1229.28 274.909 1220.28 269.879C1211.28 264.849 1204.27 257.729 1199.24 248.519C1194.21 239.309 1191.7 228.689 1191.7 216.639C1191.7 204.589 1194.18 193.759 1199.14 184.549C1204.1 175.339 1211.04 168.259 1219.97 163.299C1228.9 158.339 1239.17 155.859 1250.78 155.859C1262.39 155.859 1272 158.269 1280.85 163.079C1289.7 167.899 1296.58 174.739 1301.46 183.589C1306.35 192.439 1308.79 202.609 1308.79 214.089C1308.79 218.339 1308.5 222.169 1307.94 225.569V225.559ZM1277.98 205.589C1277.84 197.939 1275.07 191.809 1269.69 187.209C1264.3 182.609 1257.72 180.299 1249.93 180.299C1242.56 180.299 1236.36 182.529 1231.33 186.989C1226.3 191.449 1223.22 197.649 1222.09 205.589H1277.98Z" fill="white"/>
<path d="M235.51 32.1396L190.74 109.68H280.28L235.51 32.1396Z" fill="#E23B41"/>
<path d="M100.69 386.62C104.42 389.48 106.93 393.36 108.23 398.25H100.36C99.2799 395.48 97.5499 393.28 95.1899 391.65C92.8299 390.03 89.9399 389.21 86.5099 389.21C83.7799 389.21 81.34 389.88 79.2 391.22C77.06 392.56 75.3699 394.48 74.1299 396.97C72.8999 399.46 72.2799 402.38 72.2799 405.71C72.2799 409.04 72.8999 411.9 74.1299 414.39C75.3699 416.88 77.06 418.8 79.2 420.14C81.35 421.48 83.7799 422.15 86.5099 422.15C89.9299 422.15 92.8299 421.34 95.1899 419.71C97.5499 418.09 99.2699 415.91 100.36 413.18H108.23C106.93 418.08 104.42 421.94 100.69 424.78C96.9599 427.62 92.2799 429.04 86.6499 429.04C82.3199 429.04 78.4799 428.06 75.1499 426.08C71.8099 424.11 69.23 421.36 67.42 417.83C65.6 414.3 64.6899 410.26 64.6899 405.71C64.6899 401.16 65.6 397.12 67.42 393.59C69.24 390.06 71.8199 387.3 75.1499 385.3C78.4899 383.31 82.3199 382.31 86.6499 382.31C92.2799 382.31 96.9599 383.74 100.69 386.6V386.62Z" fill="white"/>
<path d="M192.54 428.679L181.1 410.349H175.83V428.679H168.42V382.789H184.61C189.85 382.789 193.83 384.069 196.54 386.619C199.25 389.179 200.6 392.559 200.6 396.759C200.6 400.359 199.59 403.299 197.58 405.599C195.56 407.899 192.65 409.369 188.84 410.019L200.87 428.679H192.55H192.54ZM175.83 405.079H184.02C190 405.079 192.99 402.439 192.99 397.149C192.99 394.639 192.26 392.679 190.81 391.269C189.36 389.859 187.09 389.159 184.02 389.159H175.83V405.079Z" fill="white"/>
<path d="M268.91 388.769V402.679H285.81V408.399H268.91V422.639H287.76V428.679H261.5V382.789H287.76V388.769H268.91Z" fill="white"/>
<path d="M374.92 418.73H355.55L352.04 428.68H344.11L361.01 383.51H369.52L386.35 428.68H378.42L374.91 418.73H374.92ZM372.84 413.01L365.23 391.56L357.63 413.01H372.84Z" fill="white"/>
<path d="M474.37 382.789V388.769H461.57V428.679H454.09V388.769H441.35V382.789H474.37Z" fill="white"/>
<path d="M540.93 382.789V428.679H533.52V382.789H540.93Z" fill="white"/>
<path d="M607.3 382.789L620.49 420.749L633.75 382.789H641.81L625.23 428.679H615.74L599.23 382.789H607.29H607.3Z" fill="white"/>
<path d="M707.2 388.769V402.679H724.1V408.399H707.2V422.639H726.05V428.679H699.79V382.789H726.05V388.769H707.2Z" fill="white"/>
<path d="M882.12 418.73H862.75L859.24 428.68H851.31L868.21 383.51H876.73L893.56 428.68H885.63L882.12 418.73ZM880.04 413.01L872.44 391.56L864.83 413.01H880.04Z" fill="white"/>
<path d="M986.7 386.43C990.34 389.12 992.74 392.78 993.92 397.42H986.12C985.12 394.95 983.49 392.98 981.21 391.5C978.93 390.03 976.24 389.29 973.12 389.29C970.26 389.29 967.69 389.96 965.42 391.3C963.14 392.64 961.37 394.55 960.09 397.02C958.81 399.49 958.17 402.39 958.17 405.73C958.17 409.24 958.82 412.25 960.12 414.77C961.42 417.28 963.25 419.2 965.61 420.52C967.97 421.84 970.71 422.5 973.83 422.5C977.64 422.5 980.92 421.32 983.65 418.96C986.38 416.6 988.03 413.36 988.59 409.24H971.76V403.78H994.83V410.86C994.31 414.24 993.11 417.31 991.22 420.06C989.34 422.81 986.84 425.01 983.75 426.66C980.65 428.31 977.11 429.13 973.12 429.13C968.66 429.13 964.71 428.13 961.29 426.14C957.87 424.15 955.22 421.39 953.36 417.85C951.5 414.32 950.57 410.28 950.57 405.73C950.57 401.18 951.5 397.14 953.36 393.61C955.22 390.08 957.86 387.33 961.26 385.36C964.66 383.39 968.59 382.4 973.06 382.4C978.52 382.4 983.07 383.74 986.71 386.43H986.7Z" fill="white"/>
<path d="M1061.71 388.769V402.679H1078.61V408.399H1061.71V422.639H1080.56V428.679H1054.3V382.789H1080.56V388.769H1061.71Z" fill="white"/>
<path d="M1177.47 428.68H1170.06L1147.77 394.81V428.68H1140.36V382.85H1147.77L1170.06 416.85V382.85H1177.47V428.68Z" fill="white"/>
<path d="M1273.74 386.62C1277.47 389.48 1279.98 393.36 1281.28 398.25H1273.41C1272.33 395.48 1270.6 393.28 1268.24 391.65C1265.88 390.03 1262.99 389.21 1259.56 389.21C1256.83 389.21 1254.39 389.88 1252.25 391.22C1250.1 392.56 1248.42 394.48 1247.18 396.97C1245.94 399.46 1245.33 402.38 1245.33 405.71C1245.33 409.04 1245.95 411.9 1247.18 414.39C1248.42 416.88 1250.1 418.8 1252.25 420.14C1254.39 421.48 1256.83 422.15 1259.56 422.15C1262.98 422.15 1265.87 421.34 1268.24 419.71C1270.6 418.09 1272.32 415.91 1273.41 413.18H1281.28C1279.98 418.08 1277.47 421.94 1273.74 424.78C1270.01 427.62 1265.33 429.04 1259.7 429.04C1255.37 429.04 1251.53 428.06 1248.2 426.08C1244.86 424.11 1242.28 421.36 1240.46 417.83C1238.64 414.3 1237.73 410.26 1237.73 405.71C1237.73 401.16 1238.64 397.12 1240.46 393.59C1242.28 390.06 1244.86 387.3 1248.2 385.3C1251.54 383.31 1255.37 382.31 1259.7 382.31C1265.33 382.31 1270.01 383.74 1273.74 386.6V386.62Z" fill="white"/>
<path d="M1376.11 382.789L1360.84 411.969V428.679H1353.36V411.969L1338.02 382.789H1346.6L1357.13 404.039L1367.66 382.789H1376.11Z" fill="white"/>
</svg>
